<svg width="120" height="23" viewBox="0 0 120 23" fill="none" xmlns="http://www.w3.org/2000/svg">
<rect x="0.5" y="0.5" width="119" height="22" rx="2.5" fill="black" stroke="white"/>
<path d="M30 0H30.5V23H30V0Z" fill="white"/>
<path d="M45.89 15V8H48.56C49.2533 8 49.8367 8.13333 50.31 8.4C50.79 8.66667 51.1533 9.04667 51.4 9.54C51.6533 10.0267 51.78 10.6067 51.78 11.28V11.7C51.78 12.7267 51.5 13.5333 50.94 14.12C50.3867 14.7067 49.5933 15 48.56 15H45.89ZM47.04 14.01H48.54C49.2133 14.01 49.73 13.82 50.09 13.44C50.45 13.06 50.63 12.49 50.63 11.73V11.26C50.63 10.52 50.45 9.95667 50.09 9.57C49.73 9.18333 49.2133 8.99 48.54 8.99H47.04V14.01ZM55.1149 15.13C54.3683 15.13 53.7849 14.9133 53.3649 14.48C52.9516 14.04 52.7449 13.4167 52.7449 12.61V12.28C52.7449 11.4867 52.9583 10.8667 53.3849 10.42C53.8116 9.96667 54.3883 9.74 55.1149 9.74H55.2049C55.8983 9.74 56.4449 9.95667 56.8449 10.39C57.2516 10.8233 57.4549 11.4067 57.4549 12.14V12.75H53.8249C53.8449 13.25 53.9649 13.6233 54.1849 13.87C54.4116 14.1167 54.7216 14.24 55.1149 14.24H55.2649C55.5649 14.24 55.8116 14.19 56.0049 14.09C56.2049 13.9833 56.3649 13.8267 56.4849 13.62L57.2849 14.14C57.1049 14.4467 56.8416 14.69 56.4949 14.87C56.1483 15.0433 55.7383 15.13 55.2649 15.13H55.1149ZM53.8349 11.98H56.3849V11.91C56.3849 11.4967 56.2783 11.1833 56.0649 10.97C55.8583 10.75 55.5683 10.64 55.1949 10.64H55.1149C54.7483 10.64 54.4516 10.7533 54.2249 10.98C54.0049 11.2067 53.8749 11.54 53.8349 11.98ZM58.5913 17V9.88H59.5613V10.63C59.7213 10.35 59.9413 10.1333 60.2213 9.98C60.508 9.82 60.848 9.74 61.2413 9.74H61.3013C61.7213 9.74 62.0947 9.84 62.4213 10.04C62.748 10.2333 63.0047 10.52 63.1913 10.9C63.3847 11.2733 63.4813 11.7333 63.4813 12.28V12.61C63.4813 13.15 63.3847 13.61 63.1913 13.99C63.0047 14.3633 62.748 14.6467 62.4213 14.84C62.0947 15.0333 61.7213 15.13 61.3013 15.13H61.2413C60.9013 15.13 60.598 15.0667 60.3313 14.94C60.0713 14.8133 59.858 14.6333 59.6913 14.4V17H58.5913ZM60.9713 14.19H61.0513C61.4313 14.19 61.748 14.0633 62.0013 13.81C62.2547 13.5567 62.3813 13.1567 62.3813 12.61V12.27C62.3813 11.7233 62.2547 11.3233 62.0013 11.07C61.748 10.8167 61.4313 10.69 61.0513 10.69H60.9713C60.7447 10.69 60.5313 10.7433 60.3313 10.85C60.138 10.9567 59.978 11.1267 59.8513 11.36C59.7313 11.5933 59.6713 11.9 59.6713 12.28V12.59C59.6713 12.9633 59.7313 13.27 59.8513 13.51C59.978 13.7433 60.1413 13.9167 60.3413 14.03C60.5413 14.1367 60.7513 14.19 60.9713 14.19ZM64.6558 15V7.7H65.7558V15H64.6558ZM69.3446 15.13C68.8846 15.13 68.4713 15.0333 68.1046 14.84C67.7446 14.64 67.4579 14.35 67.2446 13.97C67.0313 13.59 66.9246 13.1333 66.9246 12.6V12.28C66.9246 11.74 67.0313 11.2833 67.2446 10.91C67.4579 10.53 67.7446 10.24 68.1046 10.04C68.4713 9.84 68.8846 9.74 69.3446 9.74H69.4346C69.8946 9.74 70.3079 9.84 70.6746 10.04C71.0413 10.24 71.3279 10.53 71.5346 10.91C71.7479 11.2833 71.8546 11.7367 71.8546 12.27V12.6C71.8546 13.1333 71.7479 13.59 71.5346 13.97C71.3279 14.35 71.0413 14.64 70.6746 14.84C70.3079 15.0333 69.8946 15.13 69.4346 15.13H69.3446ZM69.3446 14.19H69.4246C69.8046 14.19 70.1213 14.06 70.3746 13.8C70.6279 13.54 70.7546 13.1467 70.7546 12.62V12.25C70.7546 11.7233 70.6279 11.3333 70.3746 11.08C70.1213 10.82 69.8046 10.69 69.4246 10.69H69.3446C68.9713 10.69 68.6579 10.82 68.4046 11.08C68.1513 11.3333 68.0246 11.7233 68.0246 12.25V12.62C68.0246 13.1467 68.1513 13.54 68.4046 13.8C68.6579 14.06 68.9713 14.19 69.3446 14.19ZM72.7205 17V16.07H73.0405C73.3405 16.07 73.5672 16.01 73.7205 15.89C73.8805 15.7767 74.0172 15.5533 74.1305 15.22L74.2105 15L72.2005 9.88H73.3805L74.7805 13.82L76.0705 9.88H77.1805L75.2405 15.2C75.0672 15.6867 74.8872 16.06 74.7005 16.32C74.5205 16.58 74.3039 16.7567 74.0505 16.85C73.8039 16.95 73.4872 17 73.1005 17H72.7205ZM80.7533 15V8H81.7633L85.3233 13.07V8H86.4133V15H85.4033L81.8433 9.92V15H80.7533ZM90.1747 15.13C89.7147 15.13 89.3014 15.0333 88.9347 14.84C88.5747 14.64 88.288 14.35 88.0747 13.97C87.8614 13.59 87.7547 13.1333 87.7547 12.6V12.28C87.7547 11.74 87.8614 11.2833 88.0747 10.91C88.288 10.53 88.5747 10.24 88.9347 10.04C89.3014 9.84 89.7147 9.74 90.1747 9.74H90.2647C90.7247 9.74 91.138 9.84 91.5047 10.04C91.8714 10.24 92.158 10.53 92.3647 10.91C92.578 11.2833 92.6847 11.7367 92.6847 12.27V12.6C92.6847 13.1333 92.578 13.59 92.3647 13.97C92.158 14.35 91.8714 14.64 91.5047 14.84C91.138 15.0333 90.7247 15.13 90.2647 15.13H90.1747ZM90.1747 14.19H90.2547C90.6347 14.19 90.9514 14.06 91.2047 13.8C91.458 13.54 91.5847 13.1467 91.5847 12.62V12.25C91.5847 11.7233 91.458 11.3333 91.2047 11.08C90.9514 10.82 90.6347 10.69 90.2547 10.69H90.1747C89.8014 10.69 89.488 10.82 89.2347 11.08C88.9814 11.3333 88.8547 11.7233 88.8547 12.25V12.62C88.8547 13.1467 88.9814 13.54 89.2347 13.8C89.488 14.06 89.8014 14.19 90.1747 14.19ZM93.2199 9.88H94.3799L95.4299 13.59L96.4999 9.88H97.4799L98.5299 13.53L99.5799 9.88H100.67L99.0399 15H98.0499L96.9499 11.28L95.8399 15H94.8499L93.2199 9.88Z" fill="white"/>
<path d="M13.2024 8.34063V7.02871C13.332 7.02065 13.4615 7.01252 13.5911 7.01252C17.1862 6.89916 19.5425 10.106 19.5425 10.106C19.5425 10.106 17 13.6368 14.2712 13.6368C13.9069 13.6368 13.5506 13.5801 13.2105 13.4668V9.48247C14.6113 9.65254 14.8947 10.268 15.7287 11.669L17.5992 10.0979C17.5992 10.0979 16.2307 8.30824 13.9311 8.30824C13.6882 8.30011 13.4453 8.3163 13.2024 8.34063ZM13.2024 4V5.95978L13.5911 5.93545C18.587 5.7654 21.8502 10.0331 21.8502 10.0331C21.8502 10.0331 18.1093 14.5843 14.2146 14.5843C13.8745 14.5843 13.5425 14.5519 13.2105 14.4952V15.71C13.4858 15.7423 13.7692 15.7667 14.0445 15.7667C17.6721 15.7667 20.2955 13.9122 22.838 11.7256C23.2591 12.0658 24.9837 12.8837 25.3401 13.24C22.9271 15.2646 17.2995 16.8923 14.1093 16.8923C13.8016 16.8923 13.5101 16.8761 13.2186 16.8437V18.5524H27V4H13.2024ZM13.2024 13.4668V14.5033C9.85019 13.9041 8.91901 10.4137 8.91901 10.4137C8.91901 10.4137 10.5303 8.63219 13.2024 8.34063V9.47434H13.1943C11.7935 9.30427 10.6923 10.6162 10.6923 10.6162C10.6923 10.6162 11.3158 12.827 13.2024 13.4668ZM7.25101 10.268C7.25101 10.268 9.23482 7.33647 13.2105 7.02871V5.95978C8.80565 6.31605 5 10.0413 5 10.0413C5 10.0413 7.15384 16.2768 13.2024 16.8437V15.71C8.7652 15.1593 7.25101 10.268 7.25101 10.268Z" fill="#76B900"/>
</svg>
